<?xml version="1.0" encoding="UTF-8"?>
<svg id="Layer_1" xmlns="http://www.w3.org/2000/svg" version="1.1" xmlns:xlink="http://www.w3.org/1999/xlink" viewBox="0 0 288 288">
  <!-- Generator: Adobe Illustrator 29.0.1, SVG Export Plug-In . SVG Version: 2.1.0 Build 192)  -->
  <defs>
    <style>
      .st0, .st1 {
        fill: #231f20;
      }

      .st2 {
        fill: #fff;
      }

      .st1 {
        font-family: MalgunGothic, 'Malgun Gothic';
        font-size: 19.3px;
      }
    </style>
    <path id="path" d="M218.6,170.8c-11,41.2-53.2,65.7-94.5,54.8-41.2-11-65.7-53.2-54.8-94.5,11-41.2,53.2-65.7,94.5-54.8s65.7,53.2,54.8,94.5Z"/>
    <path id="path1" d="M218.6,170.8c11-41.2-13.6-83.5-54.8-94.5s-83.5,13.6-94.5,54.8c-11,41.2,13.6,83.5,54.8,94.5,41.2,11,83.5-13.6,94.5-54.8Z"/>
  </defs>
  <circle class="st2" cx="144" cy="144" r="144"/>
  <g>
    <path class="st0" d="M92.3,173.4c-2.7-1-5.7-4.3-7.7-11s-1-7.4-.8-14.1c.2-6.7.3-10.7.3-11.9,0-1.3.4-3.5,1.2-6.6.8-3,1.1-5.1,1-6.3-.2-1.4-.7-2.4-1.6-3-.9-.6-1.8-.7-2.8-.2-3.1,1.7-5.4,2.8-6.9,3.4-.6.3-1.7.7-3.2,1.2-1.5.5-2.7,1-3.6,1.4-1.1.5-1.7,1.2-1.9,2.2-.2,1-.3,2.2-.2,3.8,0,1.6,0,3-.4,4.2-1.2,3.9-2.3,6.7-3.4,8.4s-2,2.6-2.9,2.6c-.7,0-1.5-.9-2.4-2.8-.9-1.9-1.8-4.3-2.9-7.3-1-3-1.7-5-2.2-5.9-.3-.9-1-1.5-1.5-2.3-3-5.6-13.5-2.3-15.3-1.7-1.8.6-10.4,5.1-14.6,9.5-8.9,9.5-7.3,14.3-6.7,19,1.6,11.1,17.3,12,18.7,10.3,1-1,7-5,3.7-8.6s-2.6-16.5-1.8-16c.7.5,1.2,1.5,1.3,3.1.8,7.7-.1,30.1-3.9,36.4-1.1,1.8-4.4,4-2.5,7.9s13,2.5,22.1,6.5c6,2.6-.5-8.3-1.2-16.2s-1.6-10.4,0-18.8c.3-1.1.6-1.7.8-1.7.4,0,.7.8.9,2.5.4,2.3.5,4.4.5,6.4,0,2,1,6.6,3.8,6.4,2.2-.1,7.8-10,8.7-12.2.8-2.1,1.8-4.1,2.9-5.9.6-1,1.1-1.5,1.3-1.4.3,0,3,19.4,2.1,22,6.9,36.4,55.8,12.7,48-2.1-3.4-6.5-5.9-4.1-10.3-1.8-3.7,1.9-11.5,2.9-16.7.6Z"/>
    <path class="st0" d="M94.5,132.9c1.8-.2,6.9-8.5,5.3-10.1-6.8-6.5-8.4.9-9.1,3.1-.7,2.2-.7,3.9.1,5.2.7,1.4,1.9,2,3.7,1.9Z"/>
    <path class="st0" d="M232.5,124.8c.2-3.2-3.1-10.4-1.7-17.7.6-2.4,0-4.6-4.4-6.3s-12-1.2-14.5,1.3c-1.8,1.8,2.1,4,4.2,6.6s5.1,13-.1,17.6-3.2-8.4-3.8-10c-.7-1.6-1.6-2.9-2.8-3.7-1.4-.9-4.1-3.2-6.3-3.2-2.2,0-4.9.3-6.3,1.2-2.1,1.3-2.3,2.8.7,4.9s3.3,7.3,4,12.4c0,0,.2,1.3.5,2.5s-3.2-2.4-5.9,2.3c-1.8,3.2-6.5,7.3-9.4,5.1s-.5-2.2.6-2.3c7.4-.9,6.8-4.9,11.4-7.6s1.4-12.4-6.9-13.8-12.3,3-15.4,6.7c-3.1,3.8-4.5,8.5-4.2,14.1,0,.2,0,.5,0,.7-1.2,3.3-12,1.3-16.2,1.4-1.6.1,9.7-.6,10.9-2.3,2.4-3.1,3-6.4,1.9-10.1-1.1-3.7-3.4-5.5-6.9-5.5-3.8,0-2.2,4.1-4.9,7.1s-.1.1-.2.2c-.7.5-3.9,2.6-6.1,3.9s-2-.2-1.9-1.3c.5-4.6,1.9-15,2.5-17.8s0-.6-.1-.9c-2.4-4.2-8.2-3-8.5-2.9-1.6.8-3.3,1.5-5.2,2.1-3.1,1.1-6.7,3-4.9,5.5,1,1.4,3.7-1,3.9,1.5.1,2.3,1,11.7.8,19.6,0,2.3-.2,4.3-.3,6,0,.2-.2.3-.2.5-1.1,2.2-2.7,3.9-4.9,4.9-2.2,1.1-4.3,1.3-6.2.8-1.9-.5-3.1-1.7-3.5-3.5s-.4-4,.7-5.8,5.7,1.4,7.6,1.1,4.2-3.9,3.7-6.4c-.5-2.5-1.7-4.3-3.6-5.4-3.6-1.8-8-1.1-13.1,2.2-3.2,2-5.6,4.7-7.3,8.1-1.7,3.4-2.5,7-2.2,10.8,0,.2,0,.4,0,.6-.5,1.1-1.3,2.2-2.3,3.2-1.1,1.1-2.1,1.4-3.1.9-1.8-.9-1.2-6,1.7-15.4.6-2.4.4-4.2-.6-5.5-1-1.3-2.9,1.9-4.6,2.7-3.6,1.9-6.5,0-9.4,1.1-1.3.4-2.1,1-2.3,1.8-.2.8,2.7.6,3.4,2.5.4,1.2-2.8,9.8-3.3,14s1.7,10.1,6,12.2c4.2,2.1,8.6,1.7,13.1-1,1.9-1.1,3.6-3.2,5.1-6.2,0-.1.1-.3.2-.4.4.4.7.8,1.1,1.2,3.2,3,7.6,4.3,12.7,2.5,7.6-2.7,10.3-6.8,12.2-9.4s1.9-.6,2.2.3c.9,2.4,2.6,3.9,3.4,4.3,2.9,1.5,16.4,3.3,13.8,1.3s-4.2-5-5.5-8.4-1.4-8.9-1.3-9.1c.1-.2,3.9,5.1,4.3,5.4,9.3,8.9,12,6.5,16.4,3.8,1.9-1.1,3.5-3,5-5.6.2-.3-.2.3,0,0,.4.4,1.5,1.9,1.8,2.3,3.4,2.9,8,3.5,13.2,2.3,4.2-1.1,9.9-5.2,12.1-9.1.4-.8,1.4-.9,2-.3,1,.9,2.2,1.5,3.7,1.6,2.7.3,4.8,0,6.6-2.3,1.3-1.6,4.9-5.7,5.3-4.5,1,2.2-3.3,13.9-12.7,17.5-4,1.3-9.3-2.6-10.9-.7-2.4,3.1-2.9,6.3-1.5,9.6,1.5,3.6,4.1,6,8.1,7,3.9,1,7.8.9,11.6-.6,9.4-3.6,16.5-18.5,17.4-25.9.5-4.6-.4-12.9,0-18.6ZM187.1,123.2c2.9.5.8,3.5-.5,4.5-1,.8-5.1,1.3-5.1.2.1-1.9,2.6-5.2,5.5-4.7Z"/>
    <path class="st0" d="M244.5,99c-.2-2-1-3.7-2.5-5.1-1.4-1.4-3.2-1.8-5.2-1.4-2.2.4-2.9,1.8-3.1,4.3-.4,7,4.4,5.2,4.5,5.4,1.1,2.5-1,3.8-2.2,4.7-.5.4,5.1,1.5,6.6-.8,1.5-2.3,2.1-4.7,1.9-7.1Z"/>
    <path class="st0" d="M265.9,100.4c-1.3-1.8-2.8-2.8-4.5-3.2-2.6-.6-5.4-.3-8.3,1.1-3,1.4-5.1,3.2-6.5,5.4-1.4,2.4-1.7,4.9-1,7.6.7,2.7,2.4,5,5.2,7,.7.5,4.9,4,1.2,5.6-4.1-.1-1.5-7.9-9.2-3.7-1.9,1-4.6,4.7-3.7,7.7,4.9,15.9,22.9,6.6,26.7,3.7,3.8-2.9,5.5-6.2,5-9.7-.3-2.2-1.1-4-2.4-5.3-1.3-1.3-2.6-2.2-4-2.5-1.4-.4-5.7-3.4-6.2-4.7-1.2-2.9,1.2-5.2,1.6-4,1.2,3.8,3.6,2.9,4.7,2.4,3.7-1.5,2.7-5.5,1.4-7.2Z"/>
  </g>
  <text>
    <textPath startOffset="71.9%" xlink:href="#path"><tspan class="st1"><tspan x="0" y="0">CUSTOM</tspan></tspan>
    </textPath></text>
  <text>
    <textPath startOffset="-41.7%" xlink:href="#path1"><tspan class="st1"><tspan x="0" y="0">LABELS</tspan></tspan>
    </textPath></text>
</svg>